<svg height="384" viewBox="0 0 2080 384" width="2080" xmlns="http://www.w3.org/2000/svg" xmlns:xlink="http://www.w3.org/1999/xlink"><defs><path id="a" d="m334.006707 82.2836604-221.109094-80.61936262c-5.71228-2.08277446-11.938511.89203322-13.917818 6.64035688l-98.27459739 285.41015534c-1.98026682 5.751112 1.2282096 11.437451 7.16418788 12.707023 0 0 121.75862951 25.920444 173.76431651 38.903932 37.738196 9.421535 121.36984 30.425915 137.369838 34.42593 8.038367 2.009599 12.543082 2.504771 15.03583 2.499977 2.500546-.004029 6.996451-.508046 14.964148-2.499977 15.999998-4.000015 99.631642-25.004395 137.369838-34.42593 52.005687-12.983488 173.764317-38.903932 173.764317-38.903932 5.935978-1.269572 9.173214-6.965814 7.228462-12.729155l-96.512109-286.01702834c-1.943809-5.76054645-8.149596-8.74293996-13.854269-6.66382045z"/><mask id="b" fill="#fff"><use fill="#fff" fill-rule="evenodd" xlink:href="#a"/></mask></defs><g fill="none" fill-rule="evenodd"><g transform="translate(0 1)"><use fill="#bc3f2c" xlink:href="#a"/><g fill="#fff"><path d="m116.63337 24.0096212c-9.971355 4.7492495-90.8613945 251.3738928-86.4745022 260.7245668s277.9723562 76.205502 287.8882192 69.545812c9.915863-6.659689 6.612091-241.993004-.000008-250.736962-6.6121-8.7439581-191.442355-84.2826664-201.413709-79.5334168z" mask="url(#b)"/><path d="m334.006707 82.2836604 222.99305-81.27183119c5.704673-2.07911951 11.91046.903274 13.854269 6.66382045l61.985265 183.69551234z" fill-opacity=".760303" mask="url(#b)" opacity=".1"/></g></g><g fill="#35484e" fill-rule="nonzero" transform="translate(753 52)"><path d="m65.4 123.88c8.32 0 16.16-1.6 23.52-4.8s13.6-8.32 18.72-15.36l-16.64-11.84c-3.7333333 4.8-7.76 8.293333-12.08 10.48s-8.7733333 3.28-13.36 3.28c-5.8666667 0-11.1733333-1.066667-15.92-3.2s-8.8266667-5.0666667-12.24-8.8-6.0533333-8.16-7.92-13.28-2.8-10.72-2.8-16.8c0-5.6533333.9333333-10.9333333 2.8-15.84s4.5066667-9.2 7.92-12.88 7.4933333-6.56 12.24-8.64 10.0533333-3.12 15.92-3.12c3.9466667 0 7.8666667.7466667 11.76 2.24s7.92 4.48 12.08 8.96l15.68-11.52c-5.6533333-6.5066667-11.76-11.12-18.32-13.84s-13.68-4.08-21.36-4.08c-8.7466667 0-16.7733333 1.41333333-24.08 4.24-7.3066667 2.8266667-13.6 6.8533333-18.88 12.08s-9.4133333 11.5466667-12.4 18.96c-2.98666667 7.4133333-4.48 15.6533333-4.48 24.72 0 8.8533333 1.49333333 16.9066667 4.48 24.16 2.9866667 7.2533333 7.12 13.466667 12.4 18.64s11.5733333 9.173333 18.88 12 15.3333333 4.24 24.08 4.24zm76.96-.96c5.12 0 9.813333-.986667 14.08-2.96s7.786667-5.146667 10.56-9.52h.48v10.56h17.28v-44.16c0-1.8133333-.053333-3.92-.16-6.32s-.453333-4.88-1.04-7.44-1.546667-5.0933333-2.88-7.6-3.226667-4.72-5.68-6.64-5.546667-3.4933333-9.28-4.72-8.32-1.84-13.76-1.84c-6.08 0-11.973333.96-17.68 2.88s-10.693333 5.0666667-14.96 9.44l10.08 10.08c2.56-2.4533333 5.6-4.4 9.12-5.84s7.306667-2.16 11.36-2.16c5.12 0 9.333333 1.2 12.64 3.6s4.96 6 4.96 10.8v2.08h-4.8c-3.2 0-6.613333.08-10.24.24s-7.226667.5333333-10.8 1.12-7.013333 1.4666667-10.32 2.64-6.213333 2.7466667-8.72 4.72-4.506667 4.4266667-6 7.36-2.24 6.48-2.24 10.64c0 3.84.8 7.2 2.4 10.08s3.706667 5.28 6.32 7.2 5.6 3.36 8.96 4.32 6.8 1.44 10.32 1.44zm4.64-14.4c-1.6 0-3.2-.186667-4.8-.56s-3.04-.986667-4.32-1.84-2.32-1.893333-3.12-3.12-1.2-2.746667-1.2-4.56c0-2.7733333 1.013333-4.9333333 3.04-6.48s4.506667-2.72 7.44-3.52 6.053333-1.3066667 9.36-1.52 6.293333-.32 8.96-.32h4v4.32c0 5.44-1.573333 9.733333-4.72 12.88s-8.026667 4.72-14.64 4.72zm77.6 12.48v-41.92c0-2.56.32-5.0133333.96-7.36s1.68-4.4266667 3.12-6.24 3.253333-3.2533333 5.44-4.32 4.88-1.6 8.08-1.6c3.306667 0 5.92.7733333 7.84 2.32s3.333333 3.4666667 4.24 5.76 1.466667 4.7466667 1.68 7.36.32 4.9866667.32 7.12v38.88h19.2v-48.48c0-3.9466667-.48-7.7333333-1.44-11.36s-2.56-6.8266667-4.8-9.6-5.146667-5.0133333-8.72-6.72-7.92-2.56-13.04-2.56c-6.4 0-11.466667 1.4133333-15.2 4.24s-6.506667 6.16-8.32 10h-.32v-12.32h-18.24v76.8zm95.52 1.92c5.12 0 9.813333-.986667 14.08-2.96s7.786667-5.146667 10.56-9.52h.48v10.56h17.28v-44.16c0-1.8133333-.053333-3.92-.16-6.32s-.453333-4.88-1.04-7.44-1.546667-5.0933333-2.88-7.6-3.226667-4.72-5.68-6.64-5.546667-3.4933333-9.28-4.72-8.32-1.84-13.76-1.84c-6.08 0-11.973333.96-17.68 2.88s-10.693333 5.0666667-14.96 9.44l10.08 10.08c2.56-2.4533333 5.6-4.4 9.12-5.84s7.306667-2.16 11.36-2.16c5.12 0 9.333333 1.2 12.64 3.6s4.96 6 4.96 10.8v2.08h-4.8c-3.2 0-6.613333.08-10.24.24s-7.226667.5333333-10.8 1.12-7.013333 1.4666667-10.32 2.64-6.213333 2.7466667-8.72 4.72-4.506667 4.4266667-6 7.36-2.24 6.48-2.24 10.64c0 3.84.8 7.2 2.4 10.08s3.706667 5.28 6.32 7.2 5.6 3.36 8.96 4.32 6.8 1.44 10.32 1.44zm4.64-14.4c-1.6 0-3.2-.186667-4.8-.56s-3.04-.986667-4.32-1.84-2.32-1.893333-3.12-3.12-1.2-2.746667-1.2-4.56c0-2.7733333 1.013333-4.9333333 3.04-6.48s4.506667-2.72 7.44-3.52 6.053333-1.3066667 9.36-1.52 6.293333-.32 8.96-.32h4v4.32c0 5.44-1.573333 9.733333-4.72 12.88s-8.026667 4.72-14.64 4.72zm92.48 14.4c5.44 0 10.506667-1.066667 15.2-3.2s8.426667-5.546667 11.2-10.24h.32v11.52h18.24v-120.96h-19.2v53.92h-.48c-.96-1.28-2.186667-2.5866667-3.68-3.92s-3.306667-2.5866667-5.44-3.76-4.586667-2.1333333-7.36-2.88-5.973333-1.12-9.6-1.12c-5.44 0-10.453333 1.04-15.04 3.12s-8.506667 4.9333333-11.76 8.56-5.786667 7.8933333-7.6 12.8-2.72 10.1866667-2.72 15.84.853333 10.9333333 2.56 15.84c1.706667 4.906667 4.213333 9.173333 7.52 12.8s7.28 6.48 11.92 8.56 9.946667 3.12 15.92 3.12zm3.84-17.28c-3.52 0-6.666667-.64-9.44-1.92s-5.146667-2.986667-7.12-5.12c-1.973333-2.1333333-3.466667-4.5866667-4.48-7.36s-1.52-5.6533333-1.52-8.64.506667-5.8666667 1.52-8.64 2.506667-5.2266667 4.48-7.36 4.346667-3.84 7.12-5.12 5.92-1.92 9.44-1.92 6.666667.64 9.44 1.92 5.146667 2.9866667 7.12 5.12 3.466667 4.5866667 4.48 7.36 1.52 5.6533333 1.52 8.64-.506667 5.8666667-1.52 8.64-2.506667 5.2266667-4.48 7.36c-1.973333 2.133333-4.346667 3.84-7.12 5.12s-5.92 1.92-9.44 1.92zm72.8-76c3.52 0 6.48-1.0933333 8.88-3.28s3.6-4.9333333 3.6-8.24-1.2-6.0533333-3.6-8.24c-2.4-2.18666667-5.36-3.28-8.88-3.28s-6.426667 1.14666667-8.72 3.44c-2.293333 2.2933333-3.44 4.9866667-3.44 8.08s1.146667 5.7866667 3.44 8.08 5.2 3.44 8.72 3.44zm9.76 91.36v-76.8h-19.2v76.8zm44.96 1.92c5.12 0 9.813333-.986667 14.08-2.96s7.786667-5.146667 10.56-9.52h.48v10.56h17.28v-44.16c0-1.8133333-.053333-3.92-.16-6.32s-.453333-4.88-1.04-7.44-1.546667-5.0933333-2.88-7.6-3.226667-4.72-5.68-6.64-5.546667-3.4933333-9.28-4.72-8.32-1.84-13.76-1.84c-6.08 0-11.973333.96-17.68 2.88s-10.693333 5.0666667-14.96 9.44l10.08 10.08c2.56-2.4533333 5.6-4.4 9.12-5.84s7.306667-2.16 11.36-2.16c5.12 0 9.333333 1.2 12.64 3.6s4.96 6 4.96 10.8v2.08h-4.8c-3.2 0-6.613333.08-10.24.24s-7.226667.5333333-10.8 1.12-7.013333 1.4666667-10.32 2.64-6.213333 2.7466667-8.72 4.72-4.506667 4.4266667-6 7.36-2.24 6.48-2.24 10.64c0 3.84.8 7.2 2.4 10.08s3.706667 5.28 6.32 7.2 5.6 3.36 8.96 4.32 6.8 1.44 10.32 1.44zm4.64-14.4c-1.6 0-3.2-.186667-4.8-.56s-3.04-.986667-4.32-1.84-2.32-1.893333-3.12-3.12-1.2-2.746667-1.2-4.56c0-2.7733333 1.013333-4.9333333 3.04-6.48s4.506667-2.72 7.44-3.52 6.053333-1.3066667 9.36-1.52 6.293333-.32 8.96-.32h4v4.32c0 5.44-1.573333 9.733333-4.72 12.88s-8.026667 4.72-14.64 4.72zm77.6 12.48v-41.92c0-2.56.32-5.0133333.96-7.36s1.68-4.4266667 3.12-6.24 3.253333-3.2533333 5.44-4.32 4.88-1.6 8.08-1.6c3.306667 0 5.92.7733333 7.84 2.32s3.333333 3.4666667 4.24 5.76 1.466667 4.7466667 1.68 7.36.32 4.9866667.32 7.12v38.88h19.2v-48.48c0-3.9466667-.48-7.7333333-1.44-11.36s-2.56-6.8266667-4.8-9.6-5.146667-5.0133333-8.72-6.72-7.92-2.56-13.04-2.56c-6.4 0-11.466667 1.4133333-15.2 4.24s-6.506667 6.16-8.32 10h-.32v-12.32h-18.24v76.8zm175.52 2.88c8.32 0 16.16-1.6 23.52-4.8s13.6-8.32 18.72-15.36l-16.64-11.84c-3.733333 4.8-7.76 8.293333-12.08 10.48s-8.773333 3.28-13.36 3.28c-5.866667 0-11.173333-1.066667-15.92-3.2s-8.826667-5.0666667-12.24-8.8-6.053333-8.16-7.92-13.28-2.8-10.72-2.8-16.8c0-5.6533333.933333-10.9333333 2.8-15.84s4.506667-9.2 7.92-12.88 7.493333-6.56 12.24-8.64 10.053333-3.12 15.92-3.12c3.946667 0 7.866667.7466667 11.76 2.24s7.92 4.48 12.08 8.96l15.68-11.52c-5.653333-6.5066667-11.76-11.12-18.32-13.84s-13.68-4.08-21.36-4.08c-8.746667 0-16.773333 1.41333333-24.08 4.24-7.306667 2.8266667-13.6 6.8533333-18.88 12.08s-9.413333 11.5466667-12.4 18.96-4.48 15.6533333-4.48 24.72c0 8.8533333 1.493333 16.9066667 4.48 24.16s7.12 13.466667 12.4 18.64 11.573333 9.173333 18.88 12 15.333333 4.24 24.08 4.24zm92-.96c5.76 0 11.2-.96 16.32-2.88s9.546667-4.64 13.28-8.16 6.693333-7.76 8.88-12.72 3.28-10.48 3.28-16.56-1.093333-11.6-3.28-16.56-5.146667-9.2-8.88-12.72-8.16-6.24-13.28-8.16-10.56-2.88-16.32-2.88-11.2.96-16.32 2.88-9.546667 4.64-13.28 8.16-6.693333 7.76-8.88 12.72-3.28 10.48-3.28 16.56 1.093333 11.6 3.28 16.56 5.146667 9.2 8.88 12.72 8.16 6.24 13.28 8.16 10.56 2.88 16.32 2.88zm0-17.28c-3.52 0-6.666667-.64-9.44-1.92s-5.146667-2.986667-7.12-5.12c-1.973333-2.1333333-3.466667-4.5866667-4.48-7.36s-1.52-5.6533333-1.52-8.64.506667-5.8666667 1.52-8.64 2.506667-5.2266667 4.48-7.36 4.346667-3.84 7.12-5.12 5.92-1.92 9.44-1.92 6.666667.64 9.44 1.92 5.146667 2.9866667 7.12 5.12 3.466667 4.5866667 4.48 7.36 1.52 5.6533333 1.52 8.64-.506667 5.8666667-1.52 8.64-2.506667 5.2266667-4.48 7.36c-1.973333 2.133333-4.346667 3.84-7.12 5.12s-5.92 1.92-9.44 1.92zm79.2 15.36v-120.96h-19.2v120.96zm41.76 0v-120.96h-19.2v120.96zm60 1.92c6.08 0 11.89333-1.173333 17.44-3.52s10.56-6.293333 15.04-11.84l-13.76-10.4c-2.45333 2.986667-5.30667 5.466667-8.56 7.44s-7.28 2.96-12.08 2.96c-5.44 0-10.08-1.6-13.92-4.8s-6.08-7.68-6.72-13.44h58.56v-5.28c0-6.72-.88-12.6666667-2.64-17.84s-4.21333-9.52-7.36-13.04-6.93333-6.2133333-11.36-8.08-9.30667-2.8-14.64-2.8c-5.76 0-11.2.96-16.32 2.88s-9.54667 4.64-13.28 8.16-6.69333 7.76-8.88 12.72-3.28 10.48-3.28 16.56 1.09333 11.6 3.28 16.56 5.14667 9.2 8.88 12.72 8.16 6.24 13.28 8.16 10.56 2.88 16.32 2.88zm16.8-48h-39.36c.74667-5.5466667 2.8-9.9733333 6.16-13.28s7.92-4.96 13.68-4.96c6.08 0 10.82667 1.6266667 14.24 4.88s5.17333 7.7066667 5.28 13.36zm72.8 84.48c7.46667 0 13.92-1.066667 19.36-3.2s9.94667-5.146667 13.52-9.04 6.21333-8.64 7.92-14.24 2.56-11.866667 2.56-18.8v-69.92h-18.24v11.52h-.32c-2.77333-4.6933333-6.50667-8.1066667-11.2-10.24s-9.76-3.2-15.2-3.2c-5.97333 0-11.28 1.04-15.92 3.12s-8.61333 4.9333333-11.92 8.56-5.81333 7.8933333-7.52 12.8-2.56 10.1866667-2.56 15.84c0 5.44.90667 10.56 2.72 15.36s4.4 8.96 7.76 12.48 7.38667 6.32 12.08 8.4 9.92 3.12 15.68 3.12c4.8 0 9.49333-.933333 14.08-2.8s8.26667-4.666667 11.04-8.4h.32v5.6c0 3.84-.4 7.333333-1.2 10.48s-2.13333 5.84-4 8.08-4.37333 4-7.52 5.28-7.01333 1.92-11.6 1.92c-5.44 0-10.24-.96-14.4-2.88s-8.16-4.64-12-8.16l-11.52 15.68c5.44 4.8 11.36 8.106667 17.76 9.92s13.17333 2.72 20.32 2.72zm2.24-54.72c-3.2 0-6.18667-.586667-8.96-1.76s-5.17333-2.773333-7.2-4.8c-2.02667-2.0266667-3.6-4.3733333-4.72-7.04s-1.68-5.5466667-1.68-8.64c0-3.4133333.56-6.5333333 1.68-9.36s2.66667-5.2266667 4.64-7.2 4.34667-3.52 7.12-4.64 5.86667-1.68 9.28-1.68c7.04 0 12.58667 2.08 16.64 6.24s6.08 9.6 6.08 16.32c0 3.2-.53333 6.1866667-1.6 8.96s-2.58667 5.1466667-4.56 7.12c-1.97333 1.973333-4.37333 3.546667-7.2 4.72s-6 1.76-9.52 1.76zm100.8 18.24c6.08 0 11.89333-1.173333 17.44-3.52s10.56-6.293333 15.04-11.84l-13.76-10.4c-2.45333 2.986667-5.30667 5.466667-8.56 7.44s-7.28 2.96-12.08 2.96c-5.44 0-10.08-1.6-13.92-4.8s-6.08-7.68-6.72-13.44h58.56v-5.28c0-6.72-.88-12.6666667-2.64-17.84s-4.21333-9.52-7.36-13.04-6.93333-6.2133333-11.36-8.08-9.30667-2.8-14.64-2.8c-5.76 0-11.2.96-16.32 2.88s-9.54667 4.64-13.28 8.16-6.69333 7.76-8.88 12.72-3.28 10.48-3.28 16.56 1.09333 11.6 3.28 16.56 5.14667 9.2 8.88 12.72 8.16 6.24 13.28 8.16 10.56 2.88 16.32 2.88zm16.8-48h-39.36c.74667-5.5466667 2.8-9.9733333 6.16-13.28s7.92-4.96 13.68-4.96c6.08 0 10.82667 1.6266667 14.24 4.88s5.17333 7.7066667 5.28 13.36z"/><path d="m32.373 265.308c3.8513333 0 7.4483333-.7085 10.791-2.1255s6.2493333-3.342667 8.72-5.777 4.4145-5.304667 5.8315-8.611 2.1255-6.848833 2.1255-10.6275-.7085-7.303-2.1255-10.573-3.3608333-6.140333-5.8315-8.611-5.3773333-4.4145-8.72-5.8315-6.9396667-2.1255-10.791-2.1255-7.4483333.7085-10.791 2.1255-6.2493333 3.360833-8.72 5.8315-4.4145 5.341-5.8315 8.611-2.1255 6.794333-2.1255 10.573.7085 7.321167 2.1255 10.6275 3.3608333 6.176667 5.8315 8.611 5.3773333 4.36 8.72 5.777 6.9396667 2.1255 10.791 2.1255zm0-9.156c-2.616 0-4.9776667-.454167-7.085-1.3625s-3.8876667-2.143667-5.341-3.706-2.5796667-3.451667-3.379-5.668-1.199-4.6325-1.199-7.2485.3996667-5.032167 1.199-7.2485 1.9256667-4.105667 3.379-5.668 3.2336667-2.797667 5.341-3.706 4.469-1.3625 7.085-1.3625 4.9776667.454167 7.085 1.3625 3.8876667 2.143667 5.341 3.706 2.5796667 3.451667 3.379 5.668 1.199 4.6325 1.199 7.2485-.3996667 5.032167-1.199 7.2485-1.9256667 4.105667-3.379 5.668-3.2336667 2.797667-5.341 3.706-4.469 1.3625-7.085 1.3625zm53.41 7.848v-43.164h11.772v-8.502h-11.663v-11.881c0-1.816667.0908333-3.4335.2725-4.8505s.5813333-2.634167 1.199-3.6515 1.4715-1.7985 2.5615-2.3435 2.5433333-.8175 4.36-.8175c1.0173333 0 1.962.072667 2.834.218s1.7803333.399667 2.725.763l1.09-8.72c-1.3806667-.363333-2.6705-.581333-3.8695-.654s-2.3435-.109-3.4335-.109c-6.4673333 0-11.0271667 1.6895-13.6795 5.0685s-3.9785 8.520167-3.9785 15.4235v11.554h-11.118v8.502h11.118v43.164zm107.256 0v-9.81h-41.311v-24.743h36.624v-9.81h-36.624v-22.999h39.349v-9.81h-49.813v77.172zm22.127 0v-26.596c0-2.979333.363333-5.559 1.09-7.739s1.744-3.9785 3.052-5.3955 2.834-2.4525 4.578-3.1065 3.633333-.981 5.668-.981c1.526 0 2.9975.236167 4.4145.7085s2.6705 1.235333 3.7605 2.289 1.962 2.434333 2.616 4.142.981 3.7605.981 6.1585v30.52h9.81v-33.245c0-3.415333-.508667-6.3765-1.526-8.8835s-2.379833-4.559833-4.0875-6.1585-3.706-2.7795-5.995-3.5425-4.668833-1.1445-7.1395-1.1445c-3.996667 0-7.521.853833-10.573 2.5615s-5.195667 3.942167-6.431 6.7035h-.218v-7.957h-9.81v51.666zm74.338 26.16c4.214667 0 8.066-.654 11.554-1.962s6.467333-3.142833 8.938-5.5045 4.378167-5.159333 5.7225-8.393 2.0165-6.8125 2.0165-10.7365v-51.23h-9.81v7.412h-.218c-1.889333-2.761333-4.487167-4.905-7.7935-6.431s-6.7035-2.289-10.1915-2.289c-3.996667 0-7.611833.690333-10.8455 2.071s-5.995 3.306333-8.284 5.777-4.051167 5.359167-5.2865 8.6655-1.853 6.848833-1.853 10.6275.654 7.284833 1.962 10.5185 3.124667 6.031333 5.45 8.393 5.104833 4.214667 8.3385 5.559 6.739833 2.0165 10.5185 2.0165c3.560667 0 6.957833-.744833 10.1915-2.2345s5.795167-3.796833 7.6845-6.9215h.327v7.63c0 2.18-.290667 4.341833-.872 6.4855s-1.5805 4.051167-2.9975 5.7225-3.3245 3.033833-5.7225 4.0875-5.413667 1.5805-9.047 1.5805c-3.778667 0-7.157667-.7085-10.137-2.1255s-5.740667-3.506167-8.284-6.2675l-6.649 8.284c3.706 3.415333 7.611833 5.813333 11.7175 7.194s8.629167 2.071 13.5705 2.071zm1.417-34.662c-5.232 0-9.374-1.5805-12.426-4.7415s-4.578-7.3575-4.578-12.5895c0-2.616.399667-5.032167 1.199-7.2485s1.925667-4.105667 3.379-5.668 3.233667-2.797667 5.341-3.706 4.469-1.3625 7.085-1.3625 4.977667.454167 7.085 1.3625 3.887667 2.143667 5.341 3.706 2.579667 3.451667 3.379 5.668 1.199 4.6325 1.199 7.2485c0 5.232-1.526 9.4285-4.578 12.5895s-7.194 4.7415-12.426 4.7415zm52.211 8.502v-82.404h-9.81v82.404zm21.255-63.002c1.962 0 3.6515-.7085 5.0685-2.1255s2.1255-3.1065 2.1255-5.0685-.7085-3.6515-2.1255-5.0685-3.1065-2.1255-5.0685-2.1255-3.6515.7085-5.0685 2.1255-2.1255 3.1065-2.1255 5.0685.7085 3.6515 2.1255 5.0685 3.1065 2.1255 5.0685 2.1255zm4.905 63.002v-51.666h-9.81v51.666zm31.174 1.308c2.543333 0 5.0685-.290667 7.5755-.872s4.7415-1.526 6.7035-2.834 3.560667-2.9975 4.796-5.0685 1.853-4.559833 1.853-7.4665c0-2.398-.3815-4.432667-1.1445-6.104s-1.816667-3.088333-3.161-4.251-2.943-2.107333-4.796-2.834-3.833167-1.344333-5.9405-1.853c-1.09-.218-2.398-.472333-3.924-.763s-2.961167-.726667-4.3055-1.308-2.507-1.344333-3.488-2.289-1.4715-2.18-1.4715-3.706c0-1.889333.853833-3.3245 2.5615-4.3055s3.724167-1.4715 6.0495-1.4715c2.470667 0 4.559833.4905 6.2675 1.4715s3.142833 2.198167 4.3055 3.6515l7.63-5.777c-1.889333-3.052-4.432667-5.232-7.63-6.54s-6.54-1.962-10.028-1.962c-2.398 0-4.777833.327-7.1395.981s-4.469 1.635-6.322 2.943-3.342667 2.961167-4.469 4.9595-1.6895 4.341833-1.6895 7.0305c0 2.470667.436 4.541667 1.308 6.213s2.034667 3.052 3.488 4.142 3.124667 1.962 5.014 2.616 3.887667 1.235333 5.995 1.744c1.09.218 2.3435.4905 3.7605.8175s2.761333.763 4.033 1.308 2.361667 1.289833 3.27 2.2345 1.3625 2.143667 1.3625 3.597c0 1.09-.308833 2.052833-.9265 2.8885s-1.417 1.526-2.398 2.071-2.107333.944667-3.379 1.199-2.525167.3815-3.7605.3815c-2.834 0-5.232-.617667-7.194-1.853s-3.742333-2.652333-5.341-4.251l-7.412 6.104c2.543333 3.488 5.431833 5.886 8.6655 7.194s6.994167 1.962 11.2815 1.962zm42.619-1.308v-26.596c0-2.979333.363333-5.559 1.09-7.739s1.744-3.9785 3.052-5.3955 2.834-2.4525 4.578-3.1065 3.633333-.981 5.668-.981c1.526 0 2.9975.236167 4.4145.7085s2.6705 1.235333 3.7605 2.289 1.962 2.434333 2.616 4.142.981 3.7605.981 6.1585v30.52h9.81v-33.245c0-3.415333-.508667-6.3765-1.526-8.8835s-2.379833-4.559833-4.0875-6.1585-3.706-2.7795-5.995-3.5425-4.668833-1.1445-7.1395-1.1445c-3.996667 0-7.521.853833-10.573 2.5615s-5.195667 3.942167-6.431 6.7035h-.218v-38.695h-9.81v82.404zm129.492 0v-9.81h-35.425v-67.362h-10.464v77.172zm23.544 1.308c3.924 0 7.375667-.690333 10.355-2.071s5.559-3.742333 7.739-7.085h.218c0 2.616.109 5.232.327 7.848h8.72c-.145333-1.380667-.254333-2.834-.327-4.36s-.109-3.197333-.109-5.014v-26.378c0-2.252667-.417833-4.4145-1.2535-6.4855s-2.1255-3.905833-3.8695-5.5045-3.9785-2.870333-6.7035-3.815-5.976833-1.417-9.7555-1.417c-3.633333 0-7.266667.635833-10.9 1.9075s-6.830667 3.179167-9.592 5.7225l5.886 6.104c.872-.654 1.780333-1.344333 2.725-2.071s1.998333-1.3625 3.161-1.9075 2.4525-.999167 3.8695-1.3625 3.070167-.545 4.9595-.545c2.107333 0 3.924.308833 5.45.9265s2.797667 1.453333 3.815 2.507 1.780333 2.2345 2.289 3.5425.763 2.616.763 3.924v2.18h-7.194c-3.924 0-7.611833.308833-11.0635.9265s-6.467333 1.635-9.047 3.052-4.614333 3.251833-6.104 5.5045-2.2345 5.050333-2.2345 8.393c0 2.543333.472333 4.777833 1.417 6.7035s2.2345 3.5425 3.8695 4.8505 3.5425 2.289 5.7225 2.943 4.469.981 6.867.981zm3.052-7.848c-3.415333 0-6.122167-.654-8.1205-1.962s-2.9975-3.451667-2.9975-6.431c0-2.034667.635833-3.706 1.9075-5.014s2.906667-2.325333 4.905-3.052 4.214667-1.217167 6.649-1.4715 4.814167-.3815 7.1395-.3815h5.232v3.27c0 1.744-.254333 3.506167-.763 5.2865s-1.344333 3.397167-2.507 4.8505-2.688667 2.634167-4.578 3.5425-4.178333 1.3625-6.867 1.3625zm47.96 6.54v-26.596c0-2.979333.363333-5.559 1.09-7.739s1.744-3.9785 3.052-5.3955 2.834-2.4525 4.578-3.1065 3.633333-.981 5.668-.981c1.526 0 2.9975.236167 4.4145.7085s2.6705 1.235333 3.7605 2.289 1.962 2.434333 2.616 4.142.981 3.7605.981 6.1585v30.52h9.81v-33.245c0-3.415333-.508667-6.3765-1.526-8.8835s-2.379833-4.559833-4.0875-6.1585-3.706-2.7795-5.995-3.5425-4.668833-1.1445-7.1395-1.1445c-3.996667 0-7.521.853833-10.573 2.5615s-5.195667 3.942167-6.431 6.7035h-.218v-7.957h-9.81v51.666zm74.338 26.16c4.214667 0 8.066-.654 11.554-1.962s6.467333-3.142833 8.938-5.5045 4.378167-5.159333 5.7225-8.393 2.0165-6.8125 2.0165-10.7365v-51.23h-9.81v7.412h-.218c-1.889333-2.761333-4.487167-4.905-7.7935-6.431s-6.7035-2.289-10.1915-2.289c-3.996667 0-7.611833.690333-10.8455 2.071s-5.995 3.306333-8.284 5.777-4.051167 5.359167-5.2865 8.6655-1.853 6.848833-1.853 10.6275.654 7.284833 1.962 10.5185 3.124667 6.031333 5.45 8.393 5.104833 4.214667 8.3385 5.559 6.739833 2.0165 10.5185 2.0165c3.560667 0 6.957833-.744833 10.1915-2.2345s5.795167-3.796833 7.6845-6.9215h.327v7.63c0 2.18-.290667 4.341833-.872 6.4855s-1.5805 4.051167-2.9975 5.7225-3.3245 3.033833-5.7225 4.0875-5.413667 1.5805-9.047 1.5805c-3.778667 0-7.157667-.7085-10.137-2.1255s-5.740667-3.506167-8.284-6.2675l-6.649 8.284c3.706 3.415333 7.611833 5.813333 11.7175 7.194s8.629167 2.071 13.5705 2.071zm1.417-34.662c-5.232 0-9.374-1.5805-12.426-4.7415s-4.578-7.3575-4.578-12.5895c0-2.616.399667-5.032167 1.199-7.2485s1.925667-4.105667 3.379-5.668 3.233667-2.797667 5.341-3.706 4.469-1.3625 7.085-1.3625 4.977667.454167 7.085 1.3625 3.887667 2.143667 5.341 3.706 2.579667 3.451667 3.379 5.668 1.199 4.6325 1.199 7.2485c0 5.232-1.526 9.4285-4.578 12.5895s-7.194 4.7415-12.426 4.7415zm60.386 9.81c3.996667 0 7.521-.853833 10.573-2.5615s5.195667-3.942167 6.431-6.7035h.218v7.957h9.81v-51.666h-9.81v26.596c0 2.979333-.363333 5.559-1.09 7.739s-1.744 3.9785-3.052 5.3955-2.834 2.4525-4.578 3.1065-3.633333.981-5.668.981c-1.526 0-2.9975-.236167-4.4145-.7085s-2.6705-1.235333-3.7605-2.289-1.962-2.434333-2.616-4.142-.981-3.7605-.981-6.1585v-30.52h-9.81v33.245c0 3.415333.508667 6.3765 1.526 8.8835s2.379833 4.559833 4.0875 6.1585 3.687833 2.7795 5.9405 3.5425 4.650667 1.1445 7.194 1.1445zm57.225 0c3.924 0 7.375667-.690333 10.355-2.071s5.559-3.742333 7.739-7.085h.218c0 2.616.109 5.232.327 7.848h8.72c-.145333-1.380667-.254333-2.834-.327-4.36s-.109-3.197333-.109-5.014v-26.378c0-2.252667-.417833-4.4145-1.2535-6.4855s-2.1255-3.905833-3.8695-5.5045-3.9785-2.870333-6.7035-3.815-5.976833-1.417-9.7555-1.417c-3.633333 0-7.266667.635833-10.9 1.9075s-6.830667 3.179167-9.592 5.7225l5.886 6.104c.872-.654 1.780333-1.344333 2.725-2.071s1.998333-1.3625 3.161-1.9075 2.4525-.999167 3.8695-1.3625 3.070167-.545 4.9595-.545c2.107333 0 3.924.308833 5.45.9265s2.797667 1.453333 3.815 2.507 1.780333 2.2345 2.289 3.5425.763 2.616.763 3.924v2.18h-7.194c-3.924 0-7.611833.308833-11.0635.9265s-6.467333 1.635-9.047 3.052-4.614333 3.251833-6.104 5.5045-2.2345 5.050333-2.2345 8.393c0 2.543333.472333 4.777833 1.417 6.7035s2.2345 3.5425 3.8695 4.8505 3.5425 2.289 5.7225 2.943 4.469.981 6.867.981zm3.052-7.848c-3.415333 0-6.122167-.654-8.1205-1.962s-2.9975-3.451667-2.9975-6.431c0-2.034667.635833-3.706 1.9075-5.014s2.906667-2.325333 4.905-3.052 4.214667-1.217167 6.649-1.4715 4.814167-.3815 7.1395-.3815h5.232v3.27c0 1.744-.254333 3.506167-.763 5.2865s-1.344333 3.397167-2.507 4.8505-2.688667 2.634167-4.578 3.5425-4.178333 1.3625-6.867 1.3625zm61.694 32.7c4.214667 0 8.066-.654 11.554-1.962s6.467333-3.142833 8.938-5.5045 4.378167-5.159333 5.7225-8.393 2.0165-6.8125 2.0165-10.7365v-51.23h-9.81v7.412h-.218c-1.889333-2.761333-4.487167-4.905-7.7935-6.431s-6.7035-2.289-10.1915-2.289c-3.996667 0-7.611833.690333-10.8455 2.071s-5.995 3.306333-8.284 5.777-4.051167 5.359167-5.2865 8.6655-1.853 6.848833-1.853 10.6275.654 7.284833 1.962 10.5185 3.124667 6.031333 5.45 8.393 5.104833 4.214667 8.3385 5.559 6.739833 2.0165 10.5185 2.0165c3.560667 0 6.957833-.744833 10.1915-2.2345s5.795167-3.796833 7.6845-6.9215h.327v7.63c0 2.18-.290667 4.341833-.872 6.4855s-1.5805 4.051167-2.9975 5.7225-3.3245 3.033833-5.7225 4.0875-5.413667 1.5805-9.047 1.5805c-3.778667 0-7.157667-.7085-10.137-2.1255s-5.740667-3.506167-8.284-6.2675l-6.649 8.284c3.706 3.415333 7.611833 5.813333 11.7175 7.194s8.629167 2.071 13.5705 2.071zm1.417-34.662c-5.232 0-9.374-1.5805-12.426-4.7415s-4.578-7.3575-4.578-12.5895c0-2.616.399667-5.032167 1.199-7.2485s1.925667-4.105667 3.379-5.668 3.233667-2.797667 5.341-3.706 4.469-1.3625 7.085-1.3625 4.977667.454167 7.085 1.3625 3.887667 2.143667 5.341 3.706 2.579667 3.451667 3.379 5.668 1.199 4.6325 1.199 7.2485c0 5.232-1.526 9.4285-4.578 12.5895s-7.194 4.7415-12.426 4.7415zm65.182 9.81c9.81 0 17.44-3.524333 22.89-10.573l-7.412-5.668c-1.889333 2.325333-3.960333 4.1965-6.213 5.6135s-4.905 2.1255-7.957 2.1255c-2.252667 0-4.432667-.363333-6.54-1.09s-3.960333-1.744-5.559-3.052-2.8885-2.8885-3.8695-4.7415-1.4715-3.905833-1.4715-6.1585h41.42v-3.488c0-3.342667-.454167-6.630833-1.3625-9.8645s-2.379833-6.140333-4.4145-8.72-4.6325-4.668833-7.7935-6.2675-7.0305-2.398-11.6085-2.398c-3.851333 0-7.412.690333-10.682 2.071s-6.085833 3.288167-8.4475 5.7225-4.214667 5.304667-5.559 8.611-2.0165 6.885167-2.0165 10.7365.617667 7.430167 1.853 10.7365 2.9975 6.176667 5.2865 8.611 5.086667 4.341833 8.393 5.7225 6.994167 2.071 11.0635 2.071zm14.824-31.392h-30.956c0-1.744.3815-3.506167 1.1445-5.2865s1.834833-3.397167 3.2155-4.8505 3.070167-2.634167 5.0685-3.5425 4.1965-1.3625 6.5945-1.3625c2.470667 0 4.6325.3815 6.4855 1.1445s3.397167 1.816667 4.6325 3.161 2.161833 2.924833 2.7795 4.7415.962833 3.815 1.0355 5.995z"/></g></g></svg>